<?xml version="1.0" encoding="utf-8"?>
<!-- Svg Vector Icons : http://www.onlinewebfonts.com/icon -->
<!DOCTYPE svg PUBLIC "-//W3C//DTD SVG 1.1//EN" "http://www.w3.org/Graphics/SVG/1.1/DTD/svg11.dtd">
<svg version="1.1" xmlns="http://www.w3.org/2000/svg" xmlns:xlink="http://www.w3.org/1999/xlink" x="0px" y="0px" viewBox="0 0 1000 1000" enable-background="new 0 0 1000 1000" xml:space="preserve" fill="#1d3557">
<metadata> Svg Vector Icons : http://www.onlinewebfonts.com/icon </metadata>
<g><g transform="translate(0.000000,512.000000) scale(0.100000,-0.100000)"><path d="M4626.6,5021c-696.3-71-1214.2-214.8-1784-494.9c-500.7-245.5-857.5-498.7-1264.1-892c-418.2-408.6-723.2-828.7-982.1-1354.3C354.6,1784.9,206.9,1299.6,124.4,726c-32.6-226.3-32.6-982.1,0-1208.5C260.7-1433.9,629-2287.5,1208.3-2991.5c1354.3-1643.9,3598.6-2230.9,5576.3-1459.8C8328.8-3849,9489.3-2465.9,9813.5-846.9c72.9,364.5,88.2,531.4,86.3,968.7c0,445-25,704-103.6,1055c-234,1051.2-819.1,2012.2-1649.7,2708.6c-402.8,337.6-986,675.2-1486.6,855.5c-264.7,95.9-698.2,203.3-987.9,243.6C5461,5015.2,4787.7,5038.3,4626.6,5021z M5165.6,4625.8c546.7-596.6,773.1-1337,629.2-2044.8c-30.7-153.5-124.7-431.6-182.2-544.8l-36.5-71l-282,136.2C4225.7,2611.7,3186,2987.7,2000.5,3292.7L1755,3356l149.6,140c796.1,744.3,1899.1,1185.5,3011.6,1206.6l174.6,3.8L5165.6,4625.8z M5819.7,4629.7c391.3-71,859.4-224.4,1200.8-395.2c111.3-55.6,387.5-209.1,412.4-228.3c21.1-17.3-230.2-899.7-387.5-1362c-159.2-468.1-431.6-1162.5-471.9-1206.6c-7.7-7.7-143.9,57.5-301.2,147.7c-155.4,88.2-312.7,176.5-347.2,193.7l-61.4,32.6l46,90.2c122.8,241.7,226.3,640.7,251.3,963c42.2,546.7-168.8,1221.9-529.4,1703.4c-46,59.5-65.2,99.8-49.9,99.8C5595.3,4668,5702.7,4650.8,5819.7,4629.7z M8161.9,3430.8c331.9-316.5,640.7-715.5,855.5-1104.9l69.1-126.6l-203.3-99.7c-241.7-117-471.9-264.7-698.3-443.1c-182.2-145.8-517.9-485.3-659.9-665.6c-59.5-76.7-101.7-115.1-117-105.5c-11.5,7.7-142,90.2-285.8,184.2c-193.7,126.6-260.9,178.4-253.2,201.4c3.8,17.3,88.2,224.4,184.2,462.3c253.2,619.6,477.6,1306.3,652.2,1991.1l21.1,82.5l117-92.1C7908.7,3664.8,8050.6,3536.3,8161.9,3430.8z M1755,3018.3c853.6-203.3,1855-531.4,2649.1-867.1c364.5-153.5,999.4-456.5,999.4-475.7c0-7.7-32.6-55.6-71-107.4c-218.7-291.6-485.3-537.1-836.3-771.1c-358.7-239.8-564-347.2-1484.7-780.7C2134.8-398,1689.7-655.1,1308-975.4c-172.6-143.9-423.9-397.1-508.3-510.3c-24.9-34.6-51.8-61.4-59.5-61.4c-19.2,0-143.9,385.6-197.6,615.7c-90.2,377.9-117,610-115.1,1053.1c0,468.1,28.8,715.5,132.3,1124.1c151.6,596.6,423.9,1158.6,799.9,1653.5c72.9,95.9,138.1,176.5,142,176.5C1507.5,3075.9,1620.7,3049,1755,3018.3z M9312.9,1669.8c95.9-268.6,184.2-625.4,228.3-915c46-299.2,44.1-980.2,0-1264.1c-17.3-109.3-36.5-203.3-40.3-209.1c-5.8-3.8-141.9,103.6-303.1,239.8C8770-118,8566.7,43.1,8127.4,369.2c-216.8,161.1-400.9,299.2-408.6,306.9c-21.1,19.2,186.1,280.1,360.6,452.7c145.8,145.8,366.4,328,554.4,456.5c143.9,97.8,527.5,299.2,569.7,301.2C9226.5,1886.6,9257.2,1827.1,9312.9,1669.8z M5909.9,1424.3c95.9-53.7,255.1-145.8,351-201.4l178.4-105.5l-184.2-364.5C5539.7-680,4603.6-2053.5,3331.8-3542.1c-166.9-195.7-322.3-372.1-345.3-393.2l-42.2-38.4l-126.6,67.1c-69.1,36.4-226.3,132.4-347.2,212.9C1856.6-3286.9,1331-2715.3,980-2070.7l-88.3,159.2l90.2,124.7c118.9,166.9,383.7,445,564,588.9c354.9,285.8,778.8,529.4,1565.3,897.7C4266,242.6,4645.8,459.4,5104.2,850.7c184.2,155.4,416.3,408.6,525.6,571.6c36.5,53.7,74.8,99.8,86.3,99.8C5725.7,1522.1,5812.1,1478,5909.9,1424.3z M7020.5,751c122.8-82.5,224.4-153.5,224.4-157.3c0-3.8-30.7-80.6-69.1-168.8C6955.3-89.2,6907.4-703,6995.6-1909.6c78.6-1099.1,44.1-1628.6-136.2-2054.4l-51.8-124.7l-159.2-63.3c-838.3-337.6-1858.8-399-2770-166.9c-247.5,63.3-577.4,174.6-592.7,199.5c-3.8,5.8,48,76.7,117,155.4c1356.2,1559.5,2407.4,3086.4,3144,4569.3c157.3,316.5,170.7,337.6,209.1,318.4C6776.9,912.1,6895.9,833.5,7020.5,751z M7833.9,187c531.4-391.3,1578.7-1248.8,1578.7-1292.9c0-40.3-105.5-345.3-184.2-533.3C8864-2510,8227.1-3260.1,7425.3-3764.6c-92.1-57.6-170.7-99.8-174.6-95.9c-3.8,3.8,5.7,57.5,23,118.9c94,362.5,111.3,993.7,48,1868.4c-65.2,918.8-46,1517.3,59.5,1897.1c49.9,174.6,130.5,366.4,157.3,366.4C7548.1,390.3,7680.4,298.3,7833.9,187z"/></g></g>
</svg>
