<?xml version="1.0" encoding="utf-8"?>
<!-- Svg Vector Icons : http://www.onlinewebfonts.com/icon -->
<!DOCTYPE svg PUBLIC "-//W3C//DTD SVG 1.1//EN" "http://www.w3.org/Graphics/SVG/1.1/DTD/svg11.dtd">
<svg version="1.1" xmlns="http://www.w3.org/2000/svg" xmlns:xlink="http://www.w3.org/1999/xlink" x="0px" y="0px" viewBox="0 0 1000 1000" enable-background="new 0 0 1000 1000" xml:space="preserve" fill="#f1faee">
<metadata> Svg Vector Icons : http://www.onlinewebfonts.com/icon </metadata>
<g><g transform="translate(0.000000,512.000000) scale(0.100000,-0.100000)"><path d="M4554.5,5004.6c-998.2-93.9-1902.5-444.5-2701.5-1048c-356.4-270.1-820-724.2-1111.2-1088.3c-189.7-239.5-450.2-620.8-563.3-831.5L100,1893.1V30.8v-1860.4l51.7-11.5c383.2-78.6,1632.4-302.7,2262.7-404.3c212.7-34.5,390.9-65.1,394.7-69c3.8-3.8,55.6-528.8,115-1166.8c59.4-638,113-1191.7,118.8-1230l11.5-72.8l107.3,11.5c222.2,21.1,233.7,24.9,233.7,74.7v47.9h1609.4h1609.4v-47.9c0-49.8,9.6-53.7,235.6-76.6c63.2-7.7,109.2-5.7,109.2,5.7c0,46,231.8,2446.7,237.6,2450.5c3.8,3.8,285.5,53.6,626.5,109.2c730,122.6,1325.8,229.9,1981.1,358.3l95.8,17.2l-7.7,1881.4l-5.7,1879.5l-107.3,183.9c-680.2,1184.1-1795.2,2155.4-2977.4,2594.2C6114.1,4962.4,5284.5,5071.6,4554.5,5004.6z M5537.4,4642.5c1122.7-122.6,2136.3-620.8,2983.1-1465.7c356.4-356.4,651.4-731.9,900.5-1147.6l124.5-208.8V136.2c0-925.4-5.8-1682.2-11.5-1682.2c-7.7,0-220.3-38.3-475.2-86.2c-588.2-109.2-1818.2-318-1825.9-308.5c-3.8,3.8,13.4,203.1,36.4,444.5l44.1,438.8l197.3,5.7l195.4,5.8v170.5V-703H5004.8H2303.3v-172.4v-170.5l195.4-5.8l197.3-5.7l40.2-440.7c23-241.4,40.2-442.6,38.3-444.5c-5.8-5.7-1293.3,212.7-1816.3,308.5c-260.6,49.8-479,88.1-484.7,88.1c-5.7,0-9.6,760.6-9.6,1689.9v1689.9l80.5,134.1c385.1,653.3,925.4,1260.7,1521.2,1712.8c684,517.3,1542.3,864.1,2373.8,958C4658,4663.5,5317.1,4665.5,5537.4,4642.5z M4449.2-1063.2c0-7.7-124.5-137.9-275.9-289.3l-275.9-275.9l-304.6,274c-166.7,149.4-304.6,279.7-308.5,289.3c-3.8,9.6,247.2,17.2,578.6,17.2C4184.8-1047.9,4449.2-1053.6,4449.2-1063.2z M6131.4-1061.3c-3.8-9.6-124.5-130.3-268.2-272l-262.5-256.8l-268.2,254.8c-149.4,139.9-270.1,262.5-270.1,272.1c0,7.7,241.4,15.3,538.4,15.3C5895.7-1047.9,6135.2-1053.6,6131.4-1061.3z M6945.6-1061.3c5.7-9.6-9.6-206.9-32.6-440.7l-40.2-427.2l-226.1-212.7c-122.6-116.9-231.8-208.8-241.4-205c-7.7,3.8-136,120.7-281.6,260.6l-266.3,254.8l402.3,390.8l402.3,390.8l137.9,1.9C6874.7-1047.9,6941.8-1053.6,6945.6-1061.3z M5052.7-1555.6l287.4-275.9l-287.4-287.4l-287.4-287.4l-302.7,270.1L4159.9-1864l293.1,293.1c160.9,161,297,293.1,302.7,293.1C4761.5-1279.7,4895.6-1404.2,5052.7-1555.6z M3391.6-1649.4l254.8-229.9L3410.7-2115c-130.3-130.3-237.6-226.1-239.5-212.7c-9.6,46-82.4,850.7-82.4,894.7C3088.9-1377.4,3090.8-1377.4,3391.6-1649.4z M6119.9-2574.8c32.6-34.5,23-46-241.4-310.4l-274-274l-281.6,252.9c-153.3,137.9-279.7,258.7-279.7,266.3c0,9.6,126.4,137.9,279.7,287.4l277.8,272.1l243.3-228C5978.1-2435,6102.6-2553.8,6119.9-2574.8z M4211.6-2383.3l297-264.4l-298.9-293.1l-297-295.1l-289.3,274l-287.4,274l283.6,283.6c155.2,155.2,285.5,283.6,289.3,283.6C3912.7-2120.8,4048.7-2239.6,4211.6-2383.3z M6811.5-2594c-5.8-61.3-13.4-115-17.2-118.8c-5.8-5.8-34.5,15.3-65.1,46l-57.5,55.6l61.3,63.2c34.5,34.5,67.1,63.2,74.7,63.2C6815.4-2484.8,6817.3-2534.6,6811.5-2594z M6593.1-3019.4l162.9-149.4l-34.5-362.1c-46-511.5-53.7-565.2-70.9-559.5c-7.7,3.8-187.8,160.9-400.4,350.6l-387,344.9l272.1,264.4c147.5,143.7,275.9,262.5,283.6,262.5C6426.4-2869.9,6505-2937,6593.1-3019.4z M5075.7-3163c139.9-124.5,254.8-233.7,254.8-241.4c0-7.7-137.9-145.6-306.6-306.5l-308.5-293.1l-214.6,206.9c-118.8,114.9-239.5,231.8-272.1,262.5l-57.5,53.6l297,297c249.1,249.1,298.9,291.2,323.8,272.1C4809.4-2925.5,4937.7-3036.6,5075.7-3163z M3596.6-3421.7l55.6-59.4l-160.9-162.9c-88.1-90-166.7-155.2-174.4-147.5c-5.7,7.7-21.1,134.1-34.5,281.6c-13.4,147.5-28.7,302.7-34.5,344.9l-11.5,76.6l151.4-137.9C3470.1-3301,3564-3389.1,3596.6-3421.7z M6148.6-4121c95.8-84.3,176.3-160.9,176.3-168.6c1.9-9.6-285.5-15.3-636.1-15.3c-528.8,0-645.7,3.8-676.3,28.8c-34.5,24.9-19.2,44.1,279.7,331.4l316.1,304.6l182-162.9C5890-3891.1,6050.9-4034.8,6148.6-4121z M4219.3-4017.5l297-285.5h-578.6c-325.7-1.9-580.5,5.8-580.5,15.4c0,17.2,538.4,557.5,555.6,557.5C3918.5-3730.2,4056.4-3858.5,4219.3-4017.5z"/><path d="M2705.7,1193.8V-224h172.4h172.4v1245.4v1245.4h1954.3H6959V1021.4V-224h172.4h172.4v1417.8v1417.8H5004.8H2705.7V1193.8z"/></g></g>
</svg>
